# AST/ASF file generated using VICON BodyLanguage
# -----------------------------------------------
:version 1.10
:name VICON
:units
  mass 1.0
  length 0.45
  angle deg
:documentation
   .ast/.asf automatically generated from VICON data using
   VICON BodyBuilder and BodyLanguage model FoxedUp or BRILLIANT.MOD
:root
   order TX TY TZ RX RY RZ
   axis XYZ
   position 0 0 0  
   orientation 0 0 0 
:bonedata
  begin
     id 1 
     name lhipjoint
     direction 0.573633 -0.743009 0.344793 
     length 2.46257 
     axis 0 0 0  XYZ
  end
  begin
     id 2 
     name lfemur
     direction 0.34202 -0.939693 0  
     length 7.3842  
     axis 0 0 20  XYZ
    dof rx ry rz
    limits (-160.0 20.0)
           (-70.0 70.0)
           (-60.0 70.0)
  end
  begin
     id 3 
     name ltibia
     direction 0.34202 -0.939693 0   
     length 7.50407   
     axis 0 0 20   XYZ
    dof rx
    limits (-10.0 170.0)
  end
  begin
     id 4 
     name lfoot
     direction 0.110749 -0.304281 0.946123   
     length 1.95925   
     axis -90 7.62852e-016 20   XYZ
    dof rx rz
    limits (-45.0 90.0)
           (-70.0 20.0)
  end
  begin
     id 5 
     name ltoes
     direction 1.53554e-011 -4.21843e-011 1   
     length 0.978318   
     axis -90 7.62852e-016 20   XYZ
    dof rx
    limits (-90.0 20.0)
  end
  begin
     id 6 
     name rhipjoint
     direction -0.488109 -0.791693 0.367385   
     length 2.31113  
     axis 0 0 0  XYZ 
  end
  begin
     id 7 
     name rfemur
     direction -0.34202 -0.939693 0   
     length 7.40965   
     axis 0 0 -20   XYZ
    dof rx ry rz
    limits (-160.0 20.0)
           (-70.0 70.0)
           (-70.0 60.0)
  end
  begin
     id 8 
     name rtibia
     direction -0.34202 -0.939693 0   
     length 7.55548   
     axis 0 0 -20   XYZ
    dof rx
    limits (-10.0 170.0)
 end
 begin
     id 9 
     name rfoot
     direction -0.127594 -0.350561 0.927808   
     length 2.07199  
     axis -90 -7.62852e-016 -20   XYZ
    dof rx rz
    limits (-45.0 90.0)
           (-20.0 70.0)
  end
  begin
     id 10 
     name rtoes
     direction -1.53542e-011 -4.21909e-011 1   
     length 1.02667   
     axis -90 -7.62852e-016 -20   XYZ
    dof rx
    limits (-90.0 20.0)
  end
  begin
     id 11 
     name lowerback
     direction -0.0103342 0.997298 -0.0727278   
     length 2.02836   
     axis 0 0 0   XYZ
    dof rx ry rz
    limits (-20.0 45.0)
           (-30.0 30.0)
           (-30.0 30.0)
  end
  begin
     id 12 
     name upperback
     direction 0.0171146 0.999786 -0.011606   
     length 2.03179   
     axis 0 0 0   XYZ
    dof rx ry rz
    limits (-20.0 45.0)
           (-30.0 30.0)
           (-30.0 30.0)
  end
  begin
     id 13 
     name thorax
     direction 0.0216927 0.999513 0.0224343   
     length 2.03882   
     axis 0 0 0   XYZ
    dof rx ry rz
    limits (-20.0 45.0)
           (-30.0 30.0)
           (-30.0 30.0)
  end
  begin
     id 14 
     name lowerneck
     direction 0.000989287 0.993907 0.110221   
     length 1.75428   
     axis 0 0 0   XYZ
    dof rx ry rz
    limits (-20.0 45.0)
           (-30.0 30.0)
           (-30.0 30.0)
  end
  begin
     id 15 
     name upperneck
     direction -0.0172474 0.994813 -0.100253   
     length 1.77058   
     axis 0 0 0   XYZ
    dof rx ry rz
    limits (-20.0 45.0)
           (-30.0 30.0)
           (-30.0 30.0)
  end
  begin
     id 16
     name head
     direction -0.00486455 0.99894 -0.0457663  
     length 1.77427  
     axis 0 0 0   XYZ
    dof rx ry rz
    limits (-20.0 45.0)
           (-30.0 30.0)
           (-30.0 30.0)
  end
  begin
     id 17 
     name lclavicle
     direction 0.927314 0.333734 -0.169441  
     length 3.97584  
     axis 0 0 0   XYZ
    dof ry rz
    limits (-20.0 10.0)
           (0.0 20.0)
  end
  begin
     id 18 
     name lhumerus
     direction 1 -4.48965e-011 -3.25313e-028   
     length 4.76468   
     axis 180 -30 -90   XYZ
    dof rx ry rz
    limits (-60.0 90.0)
           (-90.0 90.0)
           (-90.0 90.0)
  end
  begin
     id 19
     name lradius
     direction 1 -4.48969e-011 -2.8465e-028   
     length 3.52712   
     axis -180 -30 -90   XYZ
    dof rx
    limits (-10.0 170.0)
  end
  begin
     id 20
     name lwrist
     direction 1 -4.4896e-011 -7.78665e-028   
     length 1.76356   
     axis 1.91374e-015 90 90   XYZ
    dof ry
    limits (-180.0 0.0)
 end
  begin
     id 21 
     name lhand
     direction 1 -4.48959e-011 -1.55733e-027   
     length 0.859564   
     axis 9.9371e-016 90 90   XYZ
    dof rx rz
    limits (-90.0 90.0)
           (-45.0 45.0)
  end
  begin
     id 22 
     name lfingers
     direction 1 -4.48965e-011 -3.11466e-027   
     length 0.693002   
     axis 1.98742e-015 90 90   XYZ
    dof rx
    limits (0.0 90.0)
  end
  begin
     id 23
     name lthumb
     direction 0.707107 -6.34948e-011 0.707107   
     length 0.995017   
     axis -90 45 2.85299e-015   XYZ
    dof rx rz
    limits (-45.0 45.0)
           (-45.0 45.0)
  end
  begin
     id 24 
     name rclavicle
     direction -0.899388 0.348209 -0.264294   
     length 3.68366  
     axis 0 0 0   XYZ 
    dof ry rz
    limits (-10.0 20.0)
           (-20.0 0.0)
  end
  begin
     id 25 
     name rhumerus
     direction -1 -4.48965e-011 -3.01536e-027  
     length 4.90577   
     axis 180 30 90   XYZ
    dof rx ry rz
    limits (-90.0 60.0)
           (-90.0 90.0)
           (-90.0 90.0)
  end
  begin
     id 26 
     name rradius
     direction -1 -4.48966e-011 3.93291e-027   
     length 3.42692   
     axis -180 30 90   XYZ
    dof rx
    limits (-10.0 170.0)
  end
  begin
     id 27 
     name rwrist
     direction -1 -4.48969e-011 -7.78665e-028   
     length 1.71346   
     axis 1.91374e-015 -90 -90   XYZ
    dof ry
    limits (-180.0 0.0)
  end
  begin
     id 28
     name rhand
     direction -1 -4.48967e-011 -1.55733e-027   
     length 0.740957   
     axis 9.9371e-016 -90 -90   XYZ
    dof rx rz
    limits (-90.0 90.0)
           (-45.0 45.0)
  end
  begin
     id 29
     name rfingers
     direction -1 -4.48949e-011 -3.11466e-027   
     length 0.597378   
     axis 1.98742e-015 -90 -90   XYZ
    dof rx
    limits (0.0 90.0)
  end
  begin
     id 30
     name rthumb
     direction -0.707107 -6.34931e-011 0.707107   
     length 0.857719   
     axis -90 -45 -2.85299e-015   XYZ
    dof rx rz
    limits (-45.0 45.0)
           (-45.0 45.0)
  end
:hierarchy
  begin
    root lhipjoint rhipjoint lowerback
    lhipjoint lfemur
    lfemur ltibia
    ltibia lfoot
    lfoot ltoes
    rhipjoint rfemur
    rfemur rtibia
    rtibia rfoot
    rfoot rtoes
    lowerback upperback
    upperback thorax
    thorax lowerneck lclavicle rclavicle
    lowerneck upperneck
    upperneck head
    lclavicle lhumerus
    lhumerus lradius
    lradius lwrist
    lwrist lhand lthumb
    lhand lfingers
    rclavicle rhumerus
    rhumerus rradius
    rradius rwrist
    rwrist rhand rthumb
    rhand rfingers
  end

#!OML:ASF E:\I on waltz\AllaLogoMonkeySwing\Project 1\Capture day 1\Session 1\Subject1.ASF
:FULLY-SPECIFIED
:DEGREES
192
root 16.4837 17.0977 23.7102 -2.71524 38.2049 -2.04071
lowerback 6.88291 3.40905 2.47914
upperback -0.702663 4.81585 1.27616
thorax -4.48899 2.34228 -0.572968
lowerneck -2.49352 15.3725 10.9966
upperneck 16.0792 22.4307 -11.0451
head 7.86704 10.8427 -3.15632
rclavicle -1.64102e-014 -2.78299e-015
rhumerus -34.6113 -27.0467 -75.1031
rradius 23.8042
rwrist 2.80609
rhand -8.46063 -37.2457
rfingers 7.12502
rthumb 17.4656 -66.4811
lclavicle -1.64102e-014 -2.78299e-015
lhumerus -39.3873 9.82156 88.4904
lradius 37.2973
lwrist -1.3557
lhand -2.10697 -11.3496
lfingers 7.12502
lthumb 23.5708 17.226
rfemur -3.72405 -3.13736 23.0922
rtibia 31.4476
rfoot -24.6444 -12.6472
rtoes 12.4079
lfemur -5.4714 -1.72947 -17.7497
ltibia 30.2087
lfoot -23.7518 0.332664
ltoes -49.4729
193
root 16.5032 17.0951 23.7077 -2.63881 38.4018 -1.9747
lowerback 6.91359 3.58762 2.60381
upperback -0.669802 5.058 1.15016
thorax -4.44405 2.45829 -0.796443
lowerneck -2.43311 15.6264 10.866
upperneck 16.5325 22.8416 -10.8442
head 8.01532 11.0379 -3.01221
rclavicle -3.23413e-015 -1.19271e-015
rhumerus -34.5283 -26.8079 -75.5449
rradius 24.2438
rwrist 2.42965
rhand -8.38274 -37.3455
rfingers 7.12502
rthumb 17.5405 -66.5742
lclavicle -3.23413e-015 -1.19271e-015
lhumerus -39.0084 10.5643 87.5372
lradius 37.2236
lwrist -4.83939
lhand 0.225119 -11.9988
lfingers 7.12502
lthumb 25.806 16.2708
rfemur -3.77803 -3.39383 22.9358
rtibia 31.5651
rfoot -24.6304 -12.5752
rtoes 12.6546
lfemur -5.55087 -1.89166 -17.8829
ltibia 30.3347
lfoot -23.7963 0.302403
ltoes -49.6482
194
root 16.5219 17.0923 23.7048 -2.47086 38.6476 -1.72582
lowerback 6.90802 3.74812 2.52477
upperback -0.605413 5.25597 1.00579
thorax -4.36142 2.55821 -0.91774
lowerneck -2.67926 15.8547 10.8547
upperneck 17.4219 23.2616 -10.6805
head 8.38332 11.2149 -2.85069
rclavicle -5.85064e-014 2.34566e-014
rhumerus -34.301 -26.4494 -76.0217
rradius 24.4364
rwrist 2.15255
rhand -8.48038 -37.377
rfingers 7.12502
rthumb 17.4466 -66.6141
lclavicle -5.85064e-014 2.34566e-014
lhumerus -38.5908 10.4724 87.3314
lradius 37.3523
lwrist -4.65599
lhand 0.0263493 -11.8476
lfingers 7.12502
lthumb 25.6156 16.4496
rfemur -3.80163 -3.62643 22.638
rtibia 31.6668
rfoot -24.6693 -12.5909
rtoes 12.4029
lfemur -5.60682 -2.03372 -18.1446
ltibia 30.4462
lfoot -23.9089 0.020684
ltoes -49.2863
195
root 16.5367 17.0888 23.7011 -2.3959 38.8683 -1.61232
lowerback 6.93745 3.88948 2.49606
upperback -0.561574 5.43609 0.890289
thorax -4.31821 2.64769 -1.03854
lowerneck -2.73811 16.0272 10.8376
upperneck 18.0649 23.6053 -10.6089
head 8.64063 11.3634 -2.74996
rclavicle 7.40147e-014 8.34896e-015
rhumerus -33.9907 -25.9207 -76.5668
rradius 24.4235
rwrist 1.91954
rhand -8.53131 -37.3747
rfingers 7.12502
rthumb 17.3976 -66.6162
lclavicle 7.40147e-014 8.34896e-015
lhumerus -38.2577 10.6764 86.894
lradius 37.5904
lwrist -4.84584
lhand 0.120387 -11.6374
lfingers 7.12502
lthumb 25.7057 16.6467
rfemur -3.83137 -3.71946 22.4975
rtibia 31.7602
rfoot -24.7046 -12.7224
rtoes 12.2519
lfemur -5.67246 -1.98445 -18.2388
ltibia 30.5237
lfoot -24.0666 -0.418968
ltoes -48.791
196
root 16.5504 17.0866 23.7011 -2.52391 39.1353 -1.81204
lowerback 7.04358 4.03094 2.7479
upperback -0.599257 5.64668 0.810368
thorax -4.37839 2.74347 -1.2898
lowerneck -2.56926 16.064 10.8453
upperneck 18.5286 23.7776 -10.6505
head 8.79651 11.4415 -2.73882
rclavicle -1.33652e-014 -4.17448e-015
rhumerus -33.8156 -25.202 -77.1352
rradius 24.3989
rwrist 1.50231
rhand -8.68548 -37.5348
rfingers 7.12502
rthumb 17.2492 -66.7893
lclavicle -1.33652e-014 -4.17448e-015
lhumerus -38.0634 10.8778 86.3831
lradius 37.9325
lwrist -4.96146
lhand 0.133568 -11.5396
lfingers 7.12502
lthumb 25.7183 16.7427
rfemur -3.84126 -3.72711 22.6638
rtibia 31.8532
rfoot -24.7953 -12.9702
rtoes 12.4606
lfemur -5.7134 -1.91191 -18.0432
ltibia 30.5599
lfoot -24.2179 -0.856792
ltoes -48.5913
197
root 16.5698 17.0845 23.7048 -2.42098 39.5408 -1.66763
lowerback 7.01732 4.19548 2.76712
upperback -0.611674 5.86014 0.671522
thorax -4.35196 2.84749 -1.46205
lowerneck -2.44301 16.0253 10.7435
upperneck 19.0483 23.8507 -10.6453
head 8.94832 11.4677 -2.71111
rclavicle 1.28044e-013 6.95746e-015
rhumerus -33.66 -24.5939 -77.5413
rradius 24.2587
rwrist 1.27837
rhand -8.96102 -37.9113
rfingers 7.12502
rthumb 16.984 -67.1888
lclavicle 1.28044e-013 6.95746e-015
lhumerus -37.819 10.9597 86.0362
lradius 38.2496
lwrist -4.55965
lhand -0.332897 -11.5914
lfingers 7.12502
lthumb 25.2715 16.7548
rfemur -3.81394 -3.84541 22.5123
rtibia 31.9386
rfoot -24.9712 -13.2141
rtoes 12.8938
lfemur -5.73488 -2.01405 -18.1986
ltibia 30.5671
lfoot -24.3474 -1.13373
ltoes -48.7054
198
root 16.5909 17.0819 23.7119 -2.08596 40.1227 -1.23435
lowerback 6.88524 4.35159 2.5349
upperback -0.636609 6.03479 0.461465
thorax -4.29737 2.93805 -1.55689
lowerneck -2.25525 15.9955 10.6451
upperneck 19.4735 23.9189 -10.6058
head 9.05265 11.4998 -2.68261
rclavicle -1.63423e-014 6.16232e-015
rhumerus -33.6296 -24.5109 -77.6761
rradius 23.9584
rwrist 1.65727
rhand -9.06216 -38.1819
rfingers 7.12502
rthumb 16.8866 -67.4677
lclavicle -1.63423e-014 6.16232e-015
lhumerus -37.6596 11.0599 85.6883
lradius 38.6425
lwrist -4.00858
lhand -1.00404 -11.8098
lfingers 7.12502
lthumb 24.6283 16.6256
rfemur -3.79546 -4.06277 22.1158
rtibia 32.0067
rfoot -25.1557 -13.4718
rtoes 13.1341
lfemur -5.80906 -2.15013 -18.5885
ltibia 30.5495
lfoot -24.4369 -1.54589
ltoes -48.8537
199
root 16.6106 17.0786 23.7183 -1.92721 40.7516 -1.01303
lowerback 6.80714 4.44073 2.41476
upperback -0.6653 6.13327 0.274898
thorax -4.27118 2.98791 -1.6862
lowerneck -2.07025 16.0249 10.6459
upperneck 19.8778 24.0643 -10.5829
head 9.17502 11.5721 -2.65874
rclavicle -9.92293e-014 -7.95139e-015
rhumerus -33.6485 -24.6417 -77.8044
rradius 23.6123
rwrist 2.35242
rhand -9.13836 -38.2898
rfingers 7.12502
rthumb 16.8133 -67.5819
lclavicle -9.92293e-014 -7.95139e-015
lhumerus -37.5925 11.2125 85.2565
lradius 39.195
lwrist -3.33659
lhand -1.77943 -11.805
lfingers 7.12502
lthumb 23.8849 16.7297
rfemur -3.73234 -4.30272 21.8989
rtibia 32.0604
rfoot -25.3505 -13.7186
rtoes 13.2433
lfemur -5.84737 -2.22607 -18.7572
ltibia 30.5183
lfoot -24.4583 -2.15743
ltoes -48.9597
200
root 16.6307 17.0749 23.7224 -1.89819 41.337 -0.884702
lowerback 6.78812 4.51409 2.36381
upperback -0.657382 6.21813 0.0972953
thorax -4.23415 3.03005 -1.84599
lowerneck -1.9456 16.0579 10.6403
upperneck 20.2622 24.1934 -10.5126
head 9.2926 11.6364 -2.61702
rclavicle 1.33539e-014 4.07509e-015
rhumerus -33.6128 -24.6894 -78.009
rradius 23.227
rwrist 3.03016
rhand -9.46429 -38.471
rfingers 7.12502
rthumb 16.4995 -67.7895
lclavicle 1.33539e-014 4.07509e-015
lhumerus -37.4899 11.4723 84.7439
lradius 39.7667
lwrist -2.57859
lhand -2.46297 -11.9027
lfingers 7.12502
lthumb 23.2293 16.7163
rfemur -3.58724 -4.51469 21.7565
rtibia 32.0984
rfoot -25.5161 -14.0256
rtoes 13.3514
lfemur -5.81431 -2.35338 -18.8766
ltibia 30.5002
lfoot -24.4629 -2.61555
ltoes -49.1219
201
root 16.6489 17.0727 23.7288 -1.91658 41.9769 -0.805229
lowerback 6.78707 4.59818 2.31898
upperback -0.646177 6.3192 -0.0634099
thorax -4.20395 3.08024 -1.99467
lowerneck -1.82734 16.0592 10.6874
upperneck 20.55 24.2549 -10.4481
head 9.37734 11.6741 -2.59593
rclavicle 6.9595e-014 3.97569e-016
rhumerus -33.6071 -24.6389 -78.1997
rradius 22.8046
rwrist 3.60714
rhand -9.77256 -38.6166
rfingers 7.12502
rthumb 16.2027 -67.9595
lclavicle 6.9595e-014 3.97569e-016
lhumerus -37.3697 11.759 84.2467
lradius 40.3473
lwrist -1.8623
lhand -2.87742 -11.9899
lfingers 7.12502
lthumb 22.8316 16.6787
rfemur -3.40643 -4.6997 21.6978
rtibia 32.1386
rfoot -25.632 -14.5146
rtoes 13.1941
lfemur -5.75566 -2.52344 -18.9611
ltibia 30.4863
lfoot -24.3528 -2.98373
ltoes -49.3703
